<svg width="56" height="63" viewBox="0 0 56 63" fill="none" xmlns="http://www.w3.org/2000/svg">
<path fill-rule="evenodd" clip-rule="evenodd" d="M38.4669 13.4667C37.3202 9.04 35.7335 4.93335 33.9468 1.61335C18.5601 15.7867 -5.21315 22.32 13.2669 51.6533C13.4002 51.56 13.5202 51.4666 13.6402 51.3733C13.7468 51.28 13.6136 51.2934 13.5869 51.16C8.24024 23.92 22.3202 18.84 38.4269 13.48L38.4669 13.4667Z" fill="#A7CA84"/>
<path d="M38.4669 13.4667C37.3202 9.04 35.7335 4.93335 33.9468 1.61335C18.5601 15.7867 -5.21315 22.32 13.2669 51.6533C13.4002 51.56 13.5202 51.4666 13.6402 51.3733C13.7468 51.28 13.6136 51.2934 13.5869 51.16C8.24024 23.92 22.3202 18.84 38.4269 13.48L38.4669 13.4667Z" stroke="#59545E" strokeWidth="2.26773" strokeMiterlimit="22.9256" strokeLinecap="round" strokeLinejoin="round"/>
<path fill-rule="evenodd" clip-rule="evenodd" d="M4.11988 61.16C3.14655 61.5466 2.05317 61.0666 1.6665 60.0933C1.27983 59.1333 1.74655 58.0266 2.71988 57.6399C6.01322 56.3332 10.8665 53.5866 13.6398 51.3732C13.7465 51.2799 13.6132 51.2933 13.5866 51.16C6.55988 15.3466 33.0933 17.8399 53.7066 7.63991C56.4799 19.5599 54.3199 39.2266 44.0265 48.56C34.4265 57.2533 23.3598 55.24 15.7998 54.2266C15.5732 54.4133 15.3598 54.5866 15.1332 54.7732C11.9065 57.2799 8.25322 59.5066 4.11988 61.16Z" fill="#C1D97A"/>
<path d="M4.11988 61.16C3.14655 61.5466 2.05317 61.0666 1.6665 60.0933C1.27983 59.1333 1.74655 58.0266 2.71988 57.6399C6.01322 56.3332 10.8665 53.5866 13.6398 51.3732C13.7465 51.2799 13.6132 51.2933 13.5866 51.16C6.55988 15.3466 33.0933 17.8399 53.7066 7.63991C56.4799 19.5599 54.3199 39.2266 44.0265 48.56C34.4265 57.2533 23.3598 55.24 15.7998 54.2266C15.5732 54.4133 15.3598 54.5866 15.1332 54.7732C11.9065 57.2799 8.25322 59.5066 4.11988 61.16Z" stroke="#59545E" strokeWidth="2.26773" strokeMiterlimit="22.9256" strokeLinecap="round" strokeLinejoin="round"/>
<path d="M17.8667 49.9066C35.4934 40.04 50.7466 13.28 50.7466 13.28" stroke="#59545E" strokeWidth="2.26773" strokeMiterlimit="22.9256" strokeLinecap="round" strokeLinejoin="round"/>
<path d="M22.12 30.4133C19.68 36.9066 22.8666 46.6399 22.8666 46.6399" stroke="#59545E" strokeWidth="2.26773" strokeMiterlimit="22.9256" strokeLinecap="round" strokeLinejoin="round"/>
<path d="M31.013 22.4399C28.573 28.9466 31.7598 38.6666 31.7598 38.6666" stroke="#59545E" strokeWidth="2.26773" strokeMiterlimit="22.9256" strokeLinecap="round" strokeLinejoin="round"/>
<path d="M38.52 18.6533C38.0267 24.6533 40.1867 28.84 40.1867 28.84" stroke="#59545E" strokeWidth="2.26773" strokeMiterlimit="22.9256" strokeLinecap="round" strokeLinejoin="round"/>
<path d="M43.0798 43.32C36.7198 46.0933 26.8398 43.4134 26.8398 43.4134" stroke="#59545E" strokeWidth="2.26773" strokeMiterlimit="22.9256" strokeLinecap="round" strokeLinejoin="round"/>
<path d="M48.4931 33.44C43.7465 35.5066 36.3999 33.5066 36.3999 33.5066" stroke="#59545E" strokeWidth="2.26773" strokeMiterlimit="22.9256" strokeLinecap="round" strokeLinejoin="round"/>
<path d="M50.8264 21.9599C48.1597 22.8399 44.6665 22.7332 44.6665 22.7332" stroke="#59545E" strokeWidth="2.26773" strokeMiterlimit="22.9256" strokeLinecap="round" strokeLinejoin="round"/>
</svg>
